<?xml version="1.0" encoding="UTF-8"?>
<svg width="26px" height="26px" viewBox="0 0 26 26" version="1.1" xmlns="http://www.w3.org/2000/svg" xmlns:xlink="http://www.w3.org/1999/xlink">
    <!-- Generator: Sketch 49.2 (51160) - http://www.bohemiancoding.com/sketch -->
    <title>Combined Shape</title>
    <desc>Created with Sketch.</desc>
    <defs>
        <path d="M24.8333504,26 L15.3514478,16.5180974 C13.7274599,17.8792373 11.6341293,18.6987722 9.34938612,18.6987722 C4.18586274,18.6987722 0,14.5129095 0,9.34938612 C0,4.18586274 4.18586274,0 9.34938612,0 C14.5129095,0 18.6987722,4.18586274 18.6987722,9.34938612 C18.6987722,11.6341293 17.8792373,13.7274599 16.5180974,15.3514478 L26,24.8333504 L24.8333504,26 Z" id="path-1"></path>
    </defs>
    <g id="Symbols" stroke="none" stroke-width="1" fill="none" fill-rule="evenodd">
        <g id="search">
            <g id="Combined-Shape">
                <use fill-opacity="0.0138700181" fill="#FFFFFF" fill-rule="evenodd" xlink:href="#path-1"></use>
                <path stroke="#FFFFFF" stroke-width="1.5" d="M24.8333504,24.9393398 L24.9393398,24.8333504 L15.5020822,15.3960928 L15.9432944,14.8696787 C17.2314874,13.3327244 17.9487722,11.3972923 17.9487722,9.34938612 C17.9487722,4.60007631 14.0986959,0.75 9.34938612,0.75 C4.60007631,0.75 0.75,4.60007631 0.75,9.34938612 C0.75,14.0986959 4.60007631,17.9487722 9.34938612,17.9487722 C11.3972923,17.9487722 13.3327244,17.2314874 14.8696787,15.9432944 L15.3960928,15.5020822 L24.8333504,24.9393398 Z"></path>
            </g>
        </g>
    </g>
</svg>